# xmcd
#
# Track frame offsets:
#	150
#	16729
#	27307
#	37096
#	48250
#	57710
#	73131
#	87451
#	99070
#	112569
#	123909
#	140388
#	148568
#	162622
#	173028
#	187946
#	198158
#
# Disc length: 2884 seconds
#
# Revision: 0
# Processed by: cddbd v1.5.2PL0 Copyright (c) Steve Scherf et al.
# Submitted via: audiograbber 1.83.01
#
DISCID=e10b4211
DTITLE=Greenhorns - Pisne americkeho zapadu
DYEAR=1995
DGENRE=Country
TTITLE0=Pres plane
TTITLE1=Vuz do Tenessee
TTITLE2=Ma whisky
TTITLE3=Jesse James
TTITLE4=John Hardy
TTITLE5=Cervena reka
TTITLE6=Drnova chajda
TTITLE7=Cekani na vlak
TTITLE8=T jako Texas
TTITLE9=Na slunecni strane hor
TTITLE10=Svatebni zvony
TTITLE11=Hardy
TTITLE12=Zatoka
TTITLE13=Odjizdim v dal
TTITLE14=Zloutnou uz travy
TTITLE15=Kocarem mym je vagon uhli
TTITLE16=Proklatej vuz
EXTD=YEAR: 1995
EXTT0=
EXTT1=
EXTT2=
EXTT3=
EXTT4=
EXTT5=
EXTT6=
EXTT7=
EXTT8=
EXTT9=
EXTT10=
EXTT11=
EXTT12=
EXTT13=
EXTT14=
EXTT15=
EXTT16=
PLAYORDER=
